<svg id="visual" viewBox="0 0 960 540" width="960" height="540" xmlns="http://www.w3.org/2000/svg" xmlns:xlink="http://www.w3.org/1999/xlink" version="1.1"><g transform="translate(944.6686590598495 -70.95047303951495)"><path d="M219.2 -354.1C278 -303.3 315.5 -232.2 331.1 -161.8C346.6 -91.4 340.4 -21.7 366.2 78.5C392 178.7 449.9 309.4 425.9 409.3C402 509.3 296.1 578.5 194 564.4C91.9 550.4 -6.3 453.2 -114.6 411.6C-222.8 370 -341.2 384.1 -382 333.1C-422.8 282.2 -386.1 166.2 -378.7 68.3C-371.2 -29.7 -393 -109.5 -365.2 -165.3C-337.4 -221.1 -260.1 -252.7 -191 -298.8C-121.8 -344.9 -60.9 -405.4 9.6 -420.5C80.2 -435.5 160.4 -404.9 219.2 -354.1" fill="#26c6da"></path></g></svg>