<svg id="visual" viewBox="0 0 960 540" width="960" height="540" xmlns="http://www.w3.org/2000/svg" xmlns:xlink="http://www.w3.org/1999/xlink" version="1.1"><g transform="translate(889.6860121230104 -5.311794913005883)"><path d="M374.9 -524.1C507.9 -497.8 653.1 -431.2 686.3 -323.6C719.5 -216.1 640.9 -67.6 593.5 67.4C546.1 202.3 530 323.8 465.7 410.3C401.3 496.8 288.7 548.2 181.1 548.8C73.4 549.5 -29.2 499.3 -129.8 461.1C-230.5 422.9 -329.1 396.8 -379.5 332.3C-429.9 267.9 -432.1 165.2 -468.3 54.3C-504.5 -56.5 -574.7 -175.5 -547.5 -256.2C-520.2 -336.8 -395.6 -379.2 -288.1 -417.1C-180.6 -455 -90.3 -488.5 15.3 -512.3C120.9 -536.2 241.8 -550.3 374.9 -524.1" fill="#26c6da"></path></g></svg>