<svg id="visual" viewBox="0 0 900 600" width="900" height="600" xmlns="http://www.w3.org/2000/svg" xmlns:xlink="http://www.w3.org/1999/xlink" version="1.1"><g transform="translate(982.2603421797025 -58.818936917293115)"><path d="M231.4 -424.6C268.8 -379.2 246.5 -254.3 240.2 -170.3C233.9 -86.3 243.5 -43.2 275.3 18.3C307 79.8 360.9 159.7 344.5 204.3C328.1 248.9 241.3 258.2 172.1 330.8C103 403.4 51.5 539.2 -12.3 560.6C-76.2 581.9 -152.3 488.8 -241.5 427.8C-330.7 366.8 -433 337.9 -471.4 272C-509.8 206 -484.4 103 -491.5 -4.1C-498.5 -111.2 -538.1 -222.3 -484.1 -261.3C-430.1 -300.3 -282.5 -267.1 -186.3 -278.5C-90 -289.9 -45 -345.9 26 -391C97 -436 194 -470 231.4 -424.6" fill="#4bc8ff"></path></g></svg>