<svg xmlns="http://www.w3.org/2000/svg" version="1.1" xmlns:xlink="http://www.w3.org/1999/xlink" xmlns:svgjs="http://svgjs.com/svgjs" width="1440" height="560" preserveAspectRatio="none" viewBox="0 0 1440 560"><g mask="url(&quot;#SvgjsMask1002&quot;)" fill="none"><rect width="1440" height="560" x="0" y="0" fill="rgba(98, 157, 218, 1)"></rect><path d="M0,396.182C72.471,403.882,125.22,327.616,178.792,278.206C224.486,236.062,254.738,184.157,287.297,131.204C324.698,70.377,379.073,16.071,383.781,-55.179C388.891,-132.52,365.766,-214.395,313.939,-272.03C262.418,-329.324,181.604,-345.332,106.683,-363.328C34.997,-380.547,-41.384,-401.378,-109.758,-373.803C-176.244,-346.99,-207.663,-274.712,-252.247,-218.573C-294.718,-165.094,-361.556,-120.68,-364.95,-52.472C-368.329,15.434,-308.536,67.474,-269.24,122.958C-236.832,168.716,-195.294,202.704,-155.937,242.643C-103.678,295.675,-74.037,388.316,0,396.182" fill="#307dcd"></path><path d="M1440 1194.286C1560.541 1187.2 1677.271 1152.524 1777.937 1085.841 1877.679 1019.77 1953.341 925.881 2006.779 818.8389999999999 2061.615 708.996 2104.522 588.488 2086.882 466.992 2069.253 345.571 1988.576 246.97199999999998 1910.062 152.68900000000002 1830.164 56.742999999999995 1745.787-39.384000000000015 1628.8220000000001-83.06899999999996 1507.318-128.44899999999996 1370.62-136.274 1247.772-94.668 1127.2440000000001-53.84699999999998 1020.928 32.19200000000001 959.4780000000001 143.625 902.933 246.164 916.179 369.74199999999996 927.398 486.299 936.5699999999999 581.596 996.538 659.398 1018.0989999999999 752.6759999999999 1047.126 878.254 986.49 1033.94 1075.525 1127.134 1162.626 1218.304 1314.127 1201.6860000000001 1440 1194.286" fill="#95bde6"></path></g><defs><mask id="SvgjsMask1002"><rect width="1440" height="560" fill="#ffffff"></rect></mask></defs></svg>